<svg width="19" height="19" viewBox="0 0 19 19" fill="none" xmlns="http://www.w3.org/2000/svg">
<g clip-path="url(#clip0_1_47)">
<rect width="19" height="19" fill="black"/>
<path fill-rule="evenodd" clip-rule="evenodd" d="M10.2153 12.6635C11.0019 12.2076 11.6894 11.5989 12.2374 10.8734C12.0601 10.5996 11.9345 10.2955 11.8669 9.97634L11.8411 9.85691C11.7665 9.51626 11.5922 9.20552 11.3403 8.96431C11.0885 8.72309 10.7705 8.56232 10.427 8.50248C7.61498 8.01391 7.61498 3.97777 10.427 3.48784C10.7589 3.4302 11.0672 3.27823 11.3151 3.05009C11.563 2.82194 11.7399 2.52727 11.8248 2.20127C11.1636 1.48072 10.3544 0.911608 9.45273 0.53293C8.55104 0.154253 7.57815 -0.0250455 6.60071 0.0073179C5.62327 0.0396813 4.66437 0.282942 3.78971 0.720435C2.91504 1.15793 2.14528 1.77932 1.53315 2.54203C0.921018 3.30475 0.480985 4.19076 0.243193 5.13939C0.00540157 6.08802 -0.0245296 7.07684 0.15545 8.03811C0.33543 8.99938 0.721068 9.91039 1.28595 10.7087C1.85082 11.5071 2.58159 12.1739 3.4282 12.6635V14.25C3.4282 14.6099 3.57118 14.9551 3.82569 15.2096C4.08021 15.4641 4.4254 15.6071 4.78534 15.6071H8.85677C9.2167 15.6071 9.5619 15.4641 9.81641 15.2096C10.0709 14.9551 10.2139 14.6099 10.2139 14.25L10.2153 12.6635ZM3.42955 17.9821C3.42955 17.7122 3.53679 17.4533 3.72768 17.2624C3.91856 17.0715 4.17746 16.9643 4.44741 16.9643H9.19741C9.46736 16.9643 9.72626 17.0715 9.91714 17.2624C10.108 17.4533 10.2153 17.7122 10.2153 17.9821C10.2153 18.2521 10.108 18.511 9.91714 18.7019C9.72626 18.8927 9.46736 19 9.19741 19H4.44741C4.17746 19 3.91856 18.8927 3.72768 18.7019C3.53679 18.511 3.42955 18.2521 3.42955 17.9821ZM13.3096 2.3302C13.5579 1.19563 15.1729 1.18884 15.4308 2.3207L15.443 2.37498L15.4674 2.48084C15.6131 3.10116 15.9379 3.66497 16.4014 4.10219C16.8649 4.53941 17.4467 4.83075 18.0745 4.93998C19.2579 5.14627 19.2579 6.84541 18.0745 7.0517C17.4432 7.16158 16.8584 7.45555 16.3936 7.89669C15.9288 8.33783 15.6047 8.90647 15.462 9.5312L15.4308 9.66963C15.1729 10.8028 13.5566 10.7961 13.3068 9.66013L13.2811 9.54206C13.1442 8.91524 12.8238 8.34337 12.3607 7.89936C11.8976 7.45534 11.3128 7.1593 10.6808 7.04898C9.4987 6.84405 9.4987 5.14763 10.6808 4.94134C11.3106 4.83182 11.8937 4.53787 12.3564 4.09673C12.819 3.65559 13.1403 3.08708 13.2797 2.4632L13.3001 2.37498L13.3096 2.3302Z" fill="white"/>
</g>
<defs>
<clipPath id="clip0_1_47">
<rect width="19" height="19" fill="white"/>
</clipPath>
</defs>
</svg>
