<svg width="116" height="116" viewBox="0 0 116 116" fill="none" xmlns="http://www.w3.org/2000/svg">
<path d="M57.971 14.5C63.9966 14.5 69.6499 15.6439 74.9312 17.9317C80.2156 20.2227 84.8202 23.3321 88.7448 27.26C92.6695 31.1879 95.7773 35.7876 98.0683 41.0592C100.359 46.3307 101.503 51.9873 101.5 58.029C101.5 63.9966 100.356 69.6258 98.0683 74.9167C95.7773 80.2076 92.6679 84.8153 88.74 88.74C84.8121 92.6647 80.2124 95.7741 74.9408 98.0683C69.6693 100.363 64.0127 101.506 57.971 101.5C52.0034 101.5 46.3791 100.361 41.0978 98.0828C35.8166 95.8047 31.2024 92.6905 27.2552 88.74C23.3079 84.7896 20.1953 80.1753 17.9172 74.8973C15.6391 69.6193 14.5 63.9966 14.5 58.029C14.5 51.9906 15.6439 46.3339 17.9317 41.0592C20.2227 35.7844 23.3321 31.1847 27.26 27.26C31.1879 23.3353 35.7989 20.2259 41.093 17.9317C46.3871 15.6374 52.0131 14.4936 57.971 14.5ZM49.822 37.555C49.822 39.8396 50.6131 41.7729 52.1952 43.355C53.7805 44.9371 55.7154 45.7282 58 45.7282C60.2846 45.7282 62.2195 44.9387 63.8048 43.3598C65.3869 41.7745 66.178 39.8379 66.178 37.5502C66.178 35.2624 65.3869 33.3291 63.8048 31.7502C62.2227 30.1713 60.2878 29.377 58 29.3673C55.7122 29.3577 53.7773 30.1487 52.1952 31.7405C50.6131 33.3323 49.822 35.2672 49.822 37.5453M58 49.822C54.3879 49.822 50.4181 50.7081 46.0907 52.4803C41.7632 54.2526 39.5979 56.7739 39.5947 60.0445V76.4053C39.5947 79.4503 41.7455 82.012 46.0472 84.0903C50.3488 86.1655 55.0146 86.9936 60.0445 86.5747V78.358C57.6923 78.4966 55.477 78.3258 53.3987 77.8457C51.3171 77.3688 49.4434 76.6277 47.7775 75.6223C48.0546 74.0789 49.2468 72.8013 51.3542 71.7895C53.4615 70.7777 55.6768 70.2718 58 70.2718C60.3232 70.2718 62.6078 70.7922 64.8537 71.833C67.0996 72.8738 68.2241 74.1933 68.2273 75.7915V84.7718C71.1499 83.7923 73.2443 82.5356 74.5107 81.0018C75.7738 79.4681 76.4053 77.9359 76.4053 76.4053V60.0445C76.4053 56.7739 74.2416 54.2526 69.9142 52.4803C65.5867 50.7081 61.6153 49.822 58 49.822ZM57.9855 68.2273C56.5516 68.2273 55.3433 67.7311 54.3605 66.7387C53.3777 65.7462 52.8863 64.5331 52.8863 63.0992C52.8863 61.6653 53.3826 60.4569 54.375 59.4742C55.3674 58.4914 56.5806 58 58.0145 58C59.4484 58 60.6567 58.4962 61.6395 59.4887C62.6223 60.4811 63.1137 61.6927 63.1137 63.1233C63.1137 64.554 62.6174 65.7623 61.625 66.7483C60.6326 67.7343 59.4194 68.2257 57.9855 68.2225" fill="black"/>
</svg>
