<svg width="54" height="54" viewBox="0 0 54 54" fill="none" xmlns="http://www.w3.org/2000/svg">
<path d="M15.795 29.25C10.8225 29.25 6.79502 33.2775 6.79502 38.25C6.79502 43.2225 10.8225 47.25 15.795 47.25C20.7675 47.25 24.795 43.2225 24.795 38.25C24.795 33.2775 20.7675 29.25 15.795 29.25ZM29.25 31.5V45C29.25 46.2375 30.2625 47.25 31.5 47.25H45C46.2375 47.25 47.25 46.2375 47.25 45V31.5C47.25 30.2625 46.2375 29.25 45 29.25H31.5C30.2625 29.25 29.25 30.2625 29.25 31.5ZM13.7925 8.0325L6.36752 21.3975C5.53502 22.905 6.61502 24.75 8.32502 24.75H23.175C24.885 24.75 25.965 22.905 25.1325 21.3975L17.7075 8.0325C17.5127 7.68446 17.2287 7.39465 16.8846 7.19292C16.5405 6.9912 16.1489 6.88486 15.75 6.88486C15.3512 6.88486 14.9595 6.9912 14.6155 7.19292C14.2714 7.39465 13.9873 7.68446 13.7925 8.0325ZM43.3125 5.625C40.9275 5.625 39.24 6.885 38.25 8.2575C37.26 6.885 35.5725 5.625 33.1875 5.625C29.6775 5.625 27 8.505 27 11.8125C27 15.93 31.5675 18.945 36.7875 23.4675C37.1951 23.8161 37.7137 24.0076 38.25 24.0076C38.7863 24.0076 39.305 23.8161 39.7125 23.4675C44.9325 18.945 49.5 15.93 49.5 11.8125C49.5 8.505 46.8225 5.625 43.3125 5.625Z" fill="black"/>
</svg>
