<svg width="35" height="34" viewBox="0 0 35 34" fill="none" xmlns="http://www.w3.org/2000/svg">
<path d="M10.5996 13.5338C10.5996 12.5435 10.993 11.5938 11.6932 10.8936C12.3934 10.1934 13.3431 9.79999 14.3334 9.79999H26.4658C26.9561 9.79999 27.4417 9.89657 27.8947 10.0842C28.3477 10.2718 28.7593 10.5469 29.106 10.8936C29.4527 11.2403 29.7277 11.6519 29.9154 12.1049C30.103 12.5579 30.1996 13.0435 30.1996 13.5338V25.6662C30.1996 26.1565 30.103 26.642 29.9154 27.095C29.7277 27.5481 29.4527 27.9597 29.106 28.3064C28.7593 28.6531 28.3477 28.9281 27.8947 29.1158C27.4417 29.3034 26.9561 29.4 26.4658 29.4H14.3334C13.8431 29.4 13.3576 29.3034 12.9045 29.1158C12.4515 28.9281 12.0399 28.6531 11.6932 28.3064C11.3465 27.9597 11.0715 27.5481 10.8838 27.095C10.6962 26.642 10.5996 26.1565 10.5996 25.6662V13.5338Z" stroke="white" stroke-width="2" stroke-linecap="round" stroke-linejoin="round"/>
<path d="M6.4168 23.4318C5.987 23.1876 5.62951 22.834 5.38066 22.4069C5.13181 21.9797 5.00048 21.4943 5 21V7.00001C5 5.46001 6.26 4.20001 7.8 4.20001H21.8C22.85 4.20001 23.4212 4.73901 23.9 5.60001" stroke="white" stroke-width="2" stroke-linecap="round" stroke-linejoin="round"/>
</svg>
