<svg width="27" height="27" viewBox="0 0 27 27" fill="none" xmlns="http://www.w3.org/2000/svg">
<path fill-rule="evenodd" clip-rule="evenodd" d="M18.3667 16.5712C18.5007 16.4094 18.5695 16.2034 18.5596 15.9935C18.5498 15.7837 18.462 15.585 18.3134 15.4365C18.1649 15.2879 17.9662 15.2001 17.7563 15.1903C17.5465 15.1804 17.3405 15.2492 17.1787 15.3832L17.0707 15.4912L13.4999 19.7758L9.92916 15.4895C9.80245 15.3382 9.62668 15.236 9.43243 15.2009C9.23818 15.1657 9.03776 15.1998 8.86604 15.2972L8.74116 15.3815C8.58952 15.508 8.48705 15.6837 8.45159 15.878C8.41613 16.0722 8.44993 16.2728 8.5471 16.4447L8.63147 16.5712L12.8502 21.6337C12.9915 21.8038 13.1939 21.9117 13.4138 21.9341C13.6338 21.9565 13.8538 21.8917 14.0264 21.7535L14.1479 21.6354L18.3667 16.5712ZM18.3667 10.4287C18.5007 10.5905 18.5695 10.7965 18.5596 11.0064C18.5498 11.2163 18.462 11.4149 18.3134 11.5635C18.1649 11.712 17.9662 11.7998 17.7563 11.8097C17.5465 11.8195 17.3405 11.7507 17.1787 11.6167L17.0707 11.5087L13.4999 7.22416L9.92916 11.5104C9.80245 11.6618 9.62668 11.7639 9.43243 11.7991C9.23818 11.8342 9.03776 11.8002 8.86604 11.7028L8.74116 11.6184C8.58952 11.4919 8.48705 11.3163 8.45159 11.122C8.41613 10.9277 8.44993 10.7272 8.5471 10.5553L8.63148 10.4287L12.8502 5.36623C12.9915 5.19613 13.1939 5.08828 13.4138 5.06587C13.6338 5.04346 13.8538 5.10829 14.0264 5.24641L14.1479 5.36454L18.3667 10.4287Z" fill="black"/>
</svg>
