<svg width="20" height="20" viewBox="0 0 20 20" fill="none" xmlns="http://www.w3.org/2000/svg">
<path d="M5.934 10.3349C5.93295 11.3739 6.2995 12.3797 6.96878 13.1744C7.63806 13.9691 8.5669 14.5014 9.59091 14.677C10.6149 14.8527 11.6681 14.6604 12.5639 14.1342C13.4598 13.608 14.1406 12.7819 14.4859 11.8019H10.335V8.86794H17.527V11.8019H17.5233C16.8433 15.1496 13.8837 17.6699 10.335 17.6699C6.28388 17.6699 3 14.3861 3 10.3349C3 6.28382 6.28388 2.99994 10.335 2.99994C11.5339 2.99909 12.7147 3.29242 13.7739 3.85422C14.833 4.41602 15.7381 5.22912 16.4098 6.22221L14.0054 7.90559C13.4835 7.11664 12.7212 6.51688 11.8316 6.19519C10.942 5.8735 9.97242 5.84701 9.06659 6.11965C8.16075 6.39229 7.36687 6.94955 6.80262 7.70882C6.23837 8.46809 5.93378 9.38896 5.934 10.3349Z" fill="#1C1C1C"/>
</svg>
