<svg width="88" height="88" viewBox="0 0 88 88" fill="none" xmlns="http://www.w3.org/2000/svg">
<path d="M11 47.6667V18.3333C11 16.3167 11.7187 14.5909 13.156 13.156C14.5933 11.7211 16.3191 11.0024 18.3333 11H40.3333V47.6667H11ZM47.6667 11H69.6667C71.6833 11 73.4103 11.7187 74.8477 13.156C76.285 14.5933 77.0024 16.3191 77 18.3333V33H47.6667V11ZM47.6667 77V40.3333H77V69.6667C77 71.6833 76.2826 73.4103 74.8477 74.8477C73.4128 76.285 71.6858 77.0024 69.6667 77H47.6667ZM11 55H40.3333V77H18.3333C16.3167 77 14.5909 76.2826 13.156 74.8477C11.7211 73.4128 11.0024 71.6858 11 69.6667V55Z" fill="black"/>
</svg>
