<svg width="35" height="31" viewBox="0 0 35 31" fill="none" xmlns="http://www.w3.org/2000/svg">
<g filter="url(#filter0_d_75_189)">
<path d="M10.5996 10.5338C10.5996 9.54352 10.993 8.59382 11.6932 7.89359C12.3934 7.19337 13.3431 6.79999 14.3334 6.79999H26.4658C26.9561 6.79999 27.4417 6.89657 27.8947 7.08421C28.3477 7.27185 28.7593 7.54688 29.106 7.89359C29.4527 8.24031 29.7277 8.65192 29.9154 9.10492C30.103 9.55793 30.1996 10.0435 30.1996 10.5338V22.6662C30.1996 23.1565 30.103 23.642 29.9154 24.095C29.7277 24.5481 29.4527 24.9597 29.106 25.3064C28.7593 25.6531 28.3477 25.9281 27.8947 26.1158C27.4417 26.3034 26.9561 26.4 26.4658 26.4H14.3334C13.8431 26.4 13.3576 26.3034 12.9045 26.1158C12.4515 25.9281 12.0399 25.6531 11.6932 25.3064C11.3465 24.9597 11.0715 24.5481 10.8838 24.095C10.6962 23.642 10.5996 23.1565 10.5996 22.6662V10.5338Z" stroke="white" stroke-width="2" stroke-linecap="round" stroke-linejoin="round"/>
<path d="M6.4168 20.4318C5.987 20.1876 5.62951 19.834 5.38066 19.4069C5.13181 18.9797 5.00048 18.4943 5 18V4.00001C5 2.46001 6.26 1.20001 7.8 1.20001H21.8C22.85 1.20001 23.4212 1.73901 23.9 2.60001" stroke="white" stroke-width="2" stroke-linecap="round" stroke-linejoin="round"/>
</g>
<defs>
<filter id="filter0_d_75_189" x="0" y="0.200012" width="35.1992" height="35.2" filterUnits="userSpaceOnUse" color-interpolation-filters="sRGB">
<feFlood flood-opacity="0" result="BackgroundImageFix"/>
<feColorMatrix in="SourceAlpha" type="matrix" values="0 0 0 0 0 0 0 0 0 0 0 0 0 0 0 0 0 0 127 0" result="hardAlpha"/>
<feOffset dy="4"/>
<feGaussianBlur stdDeviation="2"/>
<feComposite in2="hardAlpha" operator="out"/>
<feColorMatrix type="matrix" values="0 0 0 0 0 0 0 0 0 0 0 0 0 0 0 0 0 0 0.25 0"/>
<feBlend mode="normal" in2="BackgroundImageFix" result="effect1_dropShadow_75_189"/>
<feBlend mode="normal" in="SourceGraphic" in2="effect1_dropShadow_75_189" result="shape"/>
</filter>
</defs>
</svg>
