<svg width="52" height="52" viewBox="0 0 52 52" fill="none" xmlns="http://www.w3.org/2000/svg">
<path d="M35.7501 4.875V8.125H41.54L36.0556 13.6597C34.0953 12.1795 31.7065 11.3776 29.2501 11.375C26.2113 11.375 23.3741 12.5775 21.2258 14.7274C20.164 15.7764 19.3209 17.0259 18.7456 18.4032C18.1702 19.7806 17.874 21.2585 17.8742 22.7512C17.8743 24.2438 18.1708 25.7217 18.7464 27.0989C19.3221 28.4761 20.1654 29.7254 21.2275 30.7743C22.6412 32.188 24.3247 33.2036 26.2032 33.7188C26.3885 33.5774 26.5965 33.4295 26.7622 33.2637C27.4433 32.571 27.9327 31.7131 28.1825 30.7743C26.4133 30.5559 24.7685 29.7509 23.5106 28.4879C21.9766 26.9555 21.1251 24.921 21.1251 22.75C21.1251 20.579 21.9782 18.5478 23.5138 17.0138C25.0446 15.4749 27.0791 14.625 29.2501 14.625C31.4211 14.625 33.454 15.4781 34.9863 17.0138C35.7445 17.764 36.3461 18.6575 36.7562 19.6422C37.1663 20.6269 37.3766 21.6833 37.3751 22.75C37.3751 24.1556 36.977 25.4638 36.3091 26.6597C36.4651 27.4983 36.5626 28.379 36.5626 29.25C36.5626 30.0592 36.4943 30.8587 36.3595 31.6387C36.6845 31.3739 36.9737 31.0732 37.2743 30.7743C39.4226 28.6227 40.6251 25.7887 40.6251 22.75C40.6251 20.2638 39.8061 17.901 38.3403 15.9445L43.8751 10.4618V16.25H47.1251V4.875H35.7501ZM25.797 18.2812C25.6117 18.4226 25.4037 18.5705 25.238 18.7362C24.536 19.4415 24.0777 20.2962 23.8177 21.2274C25.589 21.4549 27.2058 22.2284 28.4896 23.5121C30.0252 25.0445 30.8783 27.079 30.8783 29.2484C30.8783 31.4178 30.0252 33.4506 28.4896 34.9846C26.9556 36.5251 24.9211 37.375 22.7501 37.375C20.5791 37.375 18.5462 36.5219 17.0138 34.9863C16.255 34.2364 15.653 33.343 15.2429 32.3582C14.8328 31.3734 14.6228 30.3168 14.6251 29.25C14.6251 27.8444 15.0232 26.5362 15.6911 25.3403C15.5279 24.4863 15.4431 23.6193 15.4376 22.75C15.4376 21.9408 15.5058 21.1412 15.6407 20.3612C15.3157 20.6261 15.0281 20.9268 14.7258 21.2274C12.5808 23.374 11.3751 26.2113 11.3751 29.25C11.3751 31.7362 12.1941 34.099 13.6598 36.0555L10.9201 38.7969L7.67008 35.5469L5.33008 37.8316L8.58008 41.0816L5.33008 44.3316L7.67008 46.6716L10.9201 43.4216L14.1701 46.6716L16.4532 44.3316L13.2032 41.0816L15.9462 38.3419C17.9046 39.8244 20.2939 40.6261 22.7501 40.625C25.7888 40.625 28.6261 39.4225 30.7743 37.2726C32.9226 35.126 34.1251 32.2887 34.1251 29.25C34.1251 26.2113 32.9226 23.3773 30.7727 21.2257C29.359 19.812 27.6755 18.7964 25.797 18.2812Z" fill="black"/>
</svg>
