<svg width="22" height="22" viewBox="0 0 22 22" fill="none" xmlns="http://www.w3.org/2000/svg">
<g clip-path="url(#clip0_54_703)">
<path d="M16.145 14.2232C17.4764 12.4064 18.0728 10.1539 17.8147 7.91626C17.5566 5.67867 16.4632 3.62102 14.7532 2.15499C13.0432 0.68895 10.8427 -0.0773611 8.59192 0.00936444C6.34116 0.09609 4.20615 1.02946 2.61401 2.62273C1.02188 4.21601 0.0900391 6.35169 0.00492414 8.60251C-0.0801909 10.8533 0.687695 13.0533 2.15496 14.7622C3.62222 16.4712 5.68064 17.5632 7.91842 17.8196C10.1562 18.0761 12.4083 17.4781 14.2241 16.1454H14.2228C14.2631 16.2004 14.308 16.2531 14.3575 16.3036L19.6513 21.5973C19.9091 21.8553 20.2588 22.0003 20.6236 22.0005C20.9883 22.0006 21.3382 21.8558 21.5962 21.598C21.8542 21.3402 21.9992 20.9904 21.9994 20.6257C21.9995 20.2609 21.8547 19.9111 21.5969 19.6531L16.3031 14.3593C16.254 14.3095 16.2011 14.2649 16.145 14.2232ZM16.4998 8.93768C16.4998 9.93081 16.3042 10.9142 15.9241 11.8317C15.5441 12.7493 14.987 13.5829 14.2848 14.2852C13.5825 14.9874 12.7488 15.5445 11.8313 15.9245C10.9138 16.3046 9.93039 16.5002 8.93727 16.5002C7.94415 16.5002 6.96075 16.3046 6.04323 15.9245C5.1257 15.5445 4.29202 14.9874 3.58977 14.2852C2.88753 13.5829 2.33048 12.7493 1.95043 11.8317C1.57038 10.9142 1.37477 9.93081 1.37477 8.93768C1.37477 6.93198 2.17153 5.00843 3.58977 3.59019C5.00802 2.17195 6.93157 1.37518 8.93727 1.37518C10.943 1.37518 12.8665 2.17195 14.2848 3.59019C15.703 5.00843 16.4998 6.93198 16.4998 8.93768Z" fill="black"/>
</g>
<defs>
<clipPath id="clip0_54_703">
<rect width="22" height="22" fill="white"/>
</clipPath>
</defs>
</svg>
