<svg width="45" height="45" viewBox="0 0 45 45" fill="none" xmlns="http://www.w3.org/2000/svg">
<path fill-rule="evenodd" clip-rule="evenodd" d="M24.1939 29.9925C26.057 28.9127 27.6854 27.4712 28.9832 25.7528C28.5632 25.1043 28.2657 24.3841 28.1057 23.6282L28.0446 23.3453C27.868 22.5385 27.4551 21.8026 26.8586 21.2313C26.2621 20.66 25.509 20.2792 24.6954 20.1375C18.0354 18.9803 18.0354 9.42105 24.6954 8.26069C25.4815 8.12416 26.2117 7.76424 26.7987 7.2239C27.3858 6.68357 27.805 5.98567 28.0061 5.21355C26.44 3.50697 24.5235 2.15909 22.3879 1.26222C20.2523 0.365351 17.9481 -0.0593023 15.6331 0.0173479C13.3181 0.0939982 11.0471 0.670141 8.9755 1.70631C6.90393 2.74248 5.08081 4.21418 3.63102 6.02062C2.18124 7.82705 1.13905 9.92551 0.575863 12.1723C0.0126719 14.419 -0.0582177 16.7609 0.368051 19.0376C0.794319 21.3143 1.70767 23.472 3.04554 25.3628C4.38341 27.2536 6.11418 28.8329 8.11929 29.9925V33.75C8.11929 34.6025 8.45794 35.42 9.06073 36.0228C9.66353 36.6256 10.4811 36.9643 11.3336 36.9643H20.9764C21.8289 36.9643 22.6465 36.6256 23.2493 36.0228C23.8521 35.42 24.1907 34.6025 24.1907 33.75L24.1939 29.9925ZM8.12251 42.5893C8.12251 41.9499 8.37649 41.3367 8.82859 40.8846C9.28069 40.4325 9.89386 40.1785 10.5332 40.1785H21.7832C22.4226 40.1785 23.0358 40.4325 23.4879 40.8846C23.9399 41.3367 24.1939 41.9499 24.1939 42.5893C24.1939 43.2286 23.9399 43.8418 23.4879 44.2939C23.0358 44.746 22.4226 45 21.7832 45H10.5332C9.89386 45 9.28069 44.746 8.82859 44.2939C8.37649 43.8418 8.12251 43.2286 8.12251 42.5893ZM31.5225 5.51891C32.1107 2.83176 35.9357 2.81569 36.5464 5.49641L36.5754 5.62498L36.6332 5.87569C36.9782 7.34486 37.7475 8.68022 38.8453 9.71574C39.9431 10.7513 41.3211 11.4413 42.8079 11.7C45.6107 12.1885 45.6107 16.2128 42.8079 16.7014C41.3126 16.9617 39.9276 17.6579 38.8268 18.7027C37.7259 19.7475 36.9583 21.0943 36.6204 22.5739L36.5464 22.9018C35.9357 25.5857 32.1075 25.5696 31.5161 22.8793L31.455 22.5996C31.131 21.1151 30.3721 19.7606 29.2753 18.709C28.1785 17.6574 26.7933 16.9563 25.2964 16.695C22.4968 16.2096 22.4968 12.1918 25.2964 11.7032C26.7881 11.4438 28.1692 10.7476 29.2649 9.7028C30.3607 8.65798 31.1218 7.31152 31.4518 5.83391L31.5 5.62498L31.5225 5.51891Z" fill="white"/>
</svg>
