<svg width="123" height="122" viewBox="0 0 123 122" fill="none" xmlns="http://www.w3.org/2000/svg">
<g clip-path="url(#clip0_64_1285)">
<path d="M27.4019 7.625C22.3462 7.625 17.4975 9.63336 13.9226 13.2083C10.3477 16.7832 8.33936 21.6318 8.33936 26.6875V64.8125C8.33936 69.8682 10.3477 74.7168 13.9226 78.2917C17.4975 81.8666 22.3462 83.875 27.4019 83.875H46.6321C47.0235 79.5705 48.0781 75.3523 49.7584 71.37C48.7061 71.4462 47.603 71.4844 46.4491 71.4844C38.4047 71.4844 32.9224 69.6162 29.3996 66.7569C25.8464 63.8746 24.5425 60.1841 24.5425 57.1875V55.2812C24.5425 50.5385 28.3855 46.7031 33.1206 46.7031H59.8081C63.1326 46.7031 66.0149 48.5941 67.4331 51.3544C72.691 48.322 78.5446 46.4671 84.5894 45.9177V26.6875C84.5894 21.6318 82.581 16.7832 79.0061 13.2083C75.4312 9.63336 70.5825 7.625 65.5269 7.625H27.4019ZM27.4019 91.5H46.6321C46.8761 94.123 47.3463 96.6647 48.0427 99.125H42.6519C39.6925 99.125 36.7738 98.436 34.1268 97.1125C31.4799 95.789 29.1775 93.8675 27.4019 91.5ZM99.8394 41.9375V47.3284C97.3467 46.6237 94.7941 46.1515 92.2144 45.9177V26.6875C96.8427 30.1645 99.8394 35.7003 99.8394 41.9375ZM46.4644 41.9375C43.4309 41.9375 40.5218 40.7325 38.3768 38.5875C36.2319 36.4426 35.0269 33.5334 35.0269 30.5C35.0269 27.4666 36.2319 24.5574 38.3768 22.4125C40.5218 20.2675 43.4309 19.0625 46.4644 19.0625C49.4978 19.0625 52.4069 20.2675 54.5519 22.4125C56.6968 24.5574 57.9019 27.4666 57.9019 30.5C57.9019 33.5334 56.6968 36.4426 54.5519 38.5875C52.4069 40.7325 49.4978 41.9375 46.4644 41.9375ZM122.714 87.6875C122.714 96.7877 119.099 105.515 112.664 111.95C106.23 118.385 97.5021 122 88.4019 122C79.3016 122 70.5741 118.385 64.1393 111.95C57.7044 105.515 54.0894 96.7877 54.0894 87.6875C54.0894 78.5873 57.7044 69.8597 64.1393 63.4249C70.5741 56.9901 79.3016 53.375 88.4019 53.375C97.5021 53.375 106.23 56.9901 112.664 63.4249C119.099 69.8597 122.714 78.5873 122.714 87.6875ZM92.2144 72.4375C92.2144 71.4264 91.8127 70.4566 91.0977 69.7417C90.3827 69.0267 89.413 68.625 88.4019 68.625C87.3907 68.625 86.421 69.0267 85.706 69.7417C84.991 70.4566 84.5894 71.4264 84.5894 72.4375V83.875H73.1519C72.1407 83.875 71.171 84.2767 70.456 84.9917C69.741 85.7066 69.3394 86.6764 69.3394 87.6875C69.3394 88.6986 69.741 89.6684 70.456 90.3833C71.171 91.0983 72.1407 91.5 73.1519 91.5H84.5894V102.938C84.5894 103.949 84.991 104.918 85.706 105.633C86.421 106.348 87.3907 106.75 88.4019 106.75C89.413 106.75 90.3827 106.348 91.0977 105.633C91.8127 104.918 92.2144 103.949 92.2144 102.938V91.5H103.652C104.663 91.5 105.633 91.0983 106.348 90.3833C107.063 89.6684 107.464 88.6986 107.464 87.6875C107.464 86.6764 107.063 85.7066 106.348 84.9917C105.633 84.2767 104.663 83.875 103.652 83.875H92.2144V72.4375Z" fill="black"/>
</g>
<defs>
<clipPath id="clip0_64_1285">
<rect width="122" height="122" fill="white" transform="translate(0.714355)"/>
</clipPath>
</defs>
</svg>
