<svg width="49" height="49" viewBox="0 0 49 49" fill="none" xmlns="http://www.w3.org/2000/svg">
<path d="M45.9375 12.25C45.9375 10.6255 45.2922 9.06763 44.1435 7.91897C42.9949 6.77031 41.437 6.125 39.8125 6.125H38.2812V4.63681C38.2812 3.81281 37.6477 3.10556 36.8237 3.06441C36.6166 3.05444 36.4097 3.0866 36.2155 3.15895C36.0213 3.23131 35.8437 3.34234 35.6937 3.48533C35.5436 3.62833 35.4241 3.8003 35.3425 3.99082C35.2609 4.18135 35.2188 4.38647 35.2188 4.59375V6.125H13.7812V4.63681C13.7812 3.81281 13.1477 3.10556 12.3237 3.06441C12.1167 3.05444 11.9097 3.0866 11.7155 3.15895C11.5213 3.23131 11.3437 3.34234 11.1937 3.48533C11.0436 3.62833 10.9241 3.8003 10.8425 3.99082C10.7609 4.18135 10.7188 4.38647 10.7188 4.59375V6.125H9.1875C7.56305 6.125 6.00513 6.77031 4.85647 7.91897C3.70781 9.06763 3.0625 10.6255 3.0625 12.25V13.3984C3.0625 13.5 3.10283 13.5973 3.17462 13.6691C3.24641 13.7409 3.34378 13.7812 3.44531 13.7812H45.5547C45.6562 13.7812 45.7536 13.7409 45.8254 13.6691C45.8972 13.5973 45.9375 13.5 45.9375 13.3984V12.25ZM3.0625 39.8125C3.0625 41.4369 3.70781 42.9949 4.85647 44.1435C6.00513 45.2922 7.56305 45.9375 9.1875 45.9375H39.8125C41.437 45.9375 42.9949 45.2922 44.1435 44.1435C45.2922 42.9949 45.9375 41.4369 45.9375 39.8125V17.1309C45.9375 17.0547 45.9072 16.9817 45.8534 16.9278C45.7996 16.874 45.7265 16.8437 45.6504 16.8437H3.34961C3.27346 16.8437 3.20044 16.874 3.14659 16.9278C3.09275 16.9817 3.0625 17.0547 3.0625 17.1309V39.8125ZM35.9844 19.9062C36.4387 19.9062 36.8827 20.041 37.2604 20.2933C37.6382 20.5457 37.9326 20.9044 38.1064 21.3241C38.2803 21.7438 38.3257 22.2057 38.2371 22.6512C38.1485 23.0968 37.9297 23.506 37.6085 23.8273C37.2873 24.1485 36.878 24.3672 36.4325 24.4559C35.9869 24.5445 35.5251 24.499 35.1054 24.3252C34.6857 24.1513 34.327 23.8569 34.0746 23.4792C33.8222 23.1015 33.6875 22.6574 33.6875 22.2031C33.6875 21.594 33.9295 21.0097 34.3602 20.579C34.791 20.1482 35.3752 19.9062 35.9844 19.9062ZM35.9844 27.5625C36.4387 27.5625 36.8827 27.6972 37.2604 27.9496C37.6382 28.202 37.9326 28.5607 38.1064 28.9804C38.2803 29.4001 38.3257 29.8619 38.2371 30.3075C38.1485 30.753 37.9297 31.1623 37.6085 31.4835C37.2873 31.8047 36.878 32.0235 36.4325 32.1121C35.9869 32.2007 35.5251 32.1553 35.1054 31.9814C34.6857 31.8076 34.327 31.5132 34.0746 31.1354C33.8222 30.7577 33.6875 30.3137 33.6875 29.8594C33.6875 29.2502 33.9295 28.666 34.3602 28.2352C34.791 27.8045 35.3752 27.5625 35.9844 27.5625ZM28.3281 19.9062C28.7824 19.9062 29.2265 20.041 29.6042 20.2933C29.9819 20.5457 30.2763 20.9044 30.4502 21.3241C30.624 21.7438 30.6695 22.2057 30.5809 22.6512C30.4922 23.0968 30.2735 23.506 29.9523 23.8273C29.631 24.1485 29.2218 24.3672 28.7762 24.4559C28.3307 24.5445 27.8688 24.499 27.4492 24.3252C27.0295 24.1513 26.6707 23.8569 26.4183 23.4792C26.166 23.1015 26.0312 22.6574 26.0312 22.2031C26.0312 21.594 26.2732 21.0097 26.704 20.579C27.1347 20.1482 27.719 19.9062 28.3281 19.9062ZM28.3281 27.5625C28.7824 27.5625 29.2265 27.6972 29.6042 27.9496C29.9819 28.202 30.2763 28.5607 30.4502 28.9804C30.624 29.4001 30.6695 29.8619 30.5809 30.3075C30.4922 30.753 30.2735 31.1623 29.9523 31.4835C29.631 31.8047 29.2218 32.0235 28.7762 32.1121C28.3307 32.2007 27.8688 32.1553 27.4492 31.9814C27.0295 31.8076 26.6707 31.5132 26.4183 31.1354C26.166 30.7577 26.0312 30.3137 26.0312 29.8594C26.0312 29.2502 26.2732 28.666 26.704 28.2352C27.1347 27.8045 27.719 27.5625 28.3281 27.5625ZM28.3281 35.2187C28.7824 35.2187 29.2265 35.3535 29.6042 35.6058C29.9819 35.8582 30.2763 36.2169 30.4502 36.6366C30.624 37.0563 30.6695 37.5182 30.5809 37.9637C30.4922 38.4093 30.2735 38.8185 29.9523 39.1398C29.631 39.461 29.2218 39.6797 28.7762 39.7684C28.3307 39.857 27.8688 39.8115 27.4492 39.6377C27.0295 39.4638 26.6707 39.1694 26.4183 38.7917C26.166 38.414 26.0312 37.9699 26.0312 37.5156C26.0312 36.9065 26.2732 36.3222 26.704 35.8915C27.1347 35.4607 27.719 35.2187 28.3281 35.2187ZM20.6719 27.5625C21.1262 27.5625 21.5702 27.6972 21.948 27.9496C22.3257 28.202 22.6201 28.5607 22.7939 28.9804C22.9678 29.4001 23.0132 29.8619 22.9246 30.3075C22.836 30.753 22.6172 31.1623 22.296 31.4835C21.9748 31.8047 21.5655 32.0235 21.12 32.1121C20.6744 32.2007 20.2126 32.1553 19.7929 31.9814C19.3732 31.8076 19.0145 31.5132 18.7621 31.1354C18.5097 30.7577 18.375 30.3137 18.375 29.8594C18.375 29.2502 18.617 28.666 19.0477 28.2352C19.4785 27.8045 20.0627 27.5625 20.6719 27.5625ZM20.6719 35.2187C21.1262 35.2187 21.5702 35.3535 21.948 35.6058C22.3257 35.8582 22.6201 36.2169 22.7939 36.6366C22.9678 37.0563 23.0132 37.5182 22.9246 37.9637C22.836 38.4093 22.6172 38.8185 22.296 39.1398C21.9748 39.461 21.5655 39.6797 21.12 39.7684C20.6744 39.857 20.2126 39.8115 19.7929 39.6377C19.3732 39.4638 19.0145 39.1694 18.7621 38.7917C18.5097 38.414 18.375 37.9699 18.375 37.5156C18.375 36.9065 18.617 36.3222 19.0477 35.8915C19.4785 35.4607 20.0627 35.2187 20.6719 35.2187ZM13.0156 27.5625C13.4699 27.5625 13.914 27.6972 14.2917 27.9496C14.6694 28.202 14.9638 28.5607 15.1377 28.9804C15.3115 29.4001 15.357 29.8619 15.2684 30.3075C15.1797 30.753 14.961 31.1623 14.6398 31.4835C14.3185 31.8047 13.9093 32.0235 13.4637 32.1121C13.0182 32.2007 12.5563 32.1553 12.1366 31.9814C11.717 31.8076 11.3582 31.5132 11.1058 31.1354C10.8535 30.7577 10.7188 30.3137 10.7188 29.8594C10.7188 29.2502 10.9607 28.666 11.3915 28.2352C11.8222 27.8045 12.4065 27.5625 13.0156 27.5625ZM13.0156 35.2187C13.4699 35.2187 13.914 35.3535 14.2917 35.6058C14.6694 35.8582 14.9638 36.2169 15.1377 36.6366C15.3115 37.0563 15.357 37.5182 15.2684 37.9637C15.1797 38.4093 14.961 38.8185 14.6398 39.1398C14.3185 39.461 13.9093 39.6797 13.4637 39.7684C13.0182 39.857 12.5563 39.8115 12.1366 39.6377C11.717 39.4638 11.3582 39.1694 11.1058 38.7917C10.8535 38.414 10.7188 37.9699 10.7188 37.5156C10.7188 36.9065 10.9607 36.3222 11.3915 35.8915C11.8222 35.4607 12.4065 35.2187 13.0156 35.2187Z" fill="black"/>
</svg>
