<svg width="66" height="66" viewBox="0 0 66 66" fill="none" xmlns="http://www.w3.org/2000/svg">
<path d="M49.5 38.5V30.25H41.25V24.75H49.5V16.5H55V24.75H63.25V30.25H55V38.5H49.5ZM24.75 33C21.725 33 19.1354 31.9229 16.9813 29.7687C14.8271 27.6146 13.75 25.025 13.75 22C13.75 18.975 14.8271 16.3854 16.9813 14.2313C19.1354 12.0771 21.725 11 24.75 11C27.775 11 30.3646 12.0771 32.5187 14.2313C34.6729 16.3854 35.75 18.975 35.75 22C35.75 25.025 34.6729 27.6146 32.5187 29.7687C30.3646 31.9229 27.775 33 24.75 33ZM2.75 55V47.3C2.75 45.7417 3.1515 44.3098 3.9545 43.0045C4.7575 41.6992 5.82267 40.7018 7.15 40.0125C9.99167 38.5917 12.8792 37.5265 15.8125 36.817C18.7458 36.1075 21.725 35.7518 24.75 35.75C27.775 35.7482 30.7542 36.1038 33.6875 36.817C36.6208 37.5302 39.5083 38.5953 42.35 40.0125C43.6792 40.7 44.7453 41.6973 45.5482 43.0045C46.3512 44.3117 46.7518 45.7435 46.75 47.3V55H2.75Z" fill="white"/>
</svg>
