<svg width="34" height="34" viewBox="0 0 34 34" fill="none" xmlns="http://www.w3.org/2000/svg">
<path fill-rule="evenodd" clip-rule="evenodd" d="M23.1287 15.5945C23.2974 15.3907 23.384 15.1313 23.3716 14.867C23.3592 14.6027 23.2487 14.3526 23.0616 14.1655C22.8745 13.9784 22.6244 13.8679 22.3601 13.8555C22.0958 13.8431 21.8364 13.9297 21.6327 14.0985L21.4967 14.2345L17.0002 19.6298L12.5037 14.2323C12.3441 14.0417 12.1227 13.9131 11.8781 13.8688C11.6335 13.8246 11.3811 13.8675 11.1649 13.9901L11.0077 14.0963C10.8167 14.2556 10.6877 14.4768 10.643 14.7215C10.5984 14.9661 10.6409 15.2186 10.7633 15.4351L10.8695 15.5945L16.182 21.9695C16.3599 22.1837 16.6148 22.3195 16.8917 22.3477C17.1687 22.3759 17.4457 22.2943 17.6632 22.1203L17.8162 21.9716L23.1287 15.5945Z" fill="black"/>
</svg>
