<svg width="22" height="22" viewBox="0 0 22 22" fill="none" xmlns="http://www.w3.org/2000/svg">
<g clip-path="url(#clip0_75_265)">
<path fill-rule="evenodd" clip-rule="evenodd" d="M11.8283 14.663C12.7391 14.1351 13.5352 13.4304 14.1697 12.5903C13.9644 12.2732 13.819 11.9211 13.7407 11.5516L13.7109 11.4133C13.6245 11.0188 13.4226 10.659 13.131 10.3797C12.8394 10.1004 12.4713 9.91428 12.0735 9.84499C8.81745 9.27928 8.81745 4.60585 12.0735 4.03856C12.4578 3.97182 12.8148 3.79585 13.1018 3.53169C13.3888 3.26753 13.5937 2.92633 13.692 2.54885C12.9264 1.71452 11.9894 1.05556 10.9454 0.617088C9.90131 0.17862 8.7748 -0.0289888 7.64303 0.0084846C6.51126 0.045958 5.40096 0.327628 4.38819 0.834199C3.37542 1.34077 2.48411 2.06027 1.77533 2.94342C1.06655 3.82656 0.557033 4.85247 0.281695 5.95089C0.00635725 7.0493 -0.0282999 8.19424 0.180098 9.3073C0.388496 10.4204 0.835024 11.4752 1.48909 12.3996C2.14316 13.324 2.98932 14.0961 3.96959 14.663V16.5C3.96959 16.9168 4.13515 17.3165 4.42985 17.6112C4.72455 17.9059 5.12425 18.0714 5.54102 18.0714H10.2553C10.6721 18.0714 11.0718 17.9059 11.3665 17.6112C11.6612 17.3165 11.8267 16.9168 11.8267 16.5L11.8283 14.663ZM3.97116 20.8214C3.97116 20.5088 4.09534 20.2091 4.31636 19.988C4.53739 19.767 4.83716 19.6428 5.14974 19.6428H10.6497C10.9623 19.6428 11.2621 19.767 11.4831 19.988C11.7041 20.2091 11.8283 20.5088 11.8283 20.8214C11.8283 21.134 11.7041 21.4338 11.4831 21.6548C11.2621 21.8758 10.9623 22 10.6497 22H5.14974C4.83716 22 4.53739 21.8758 4.31636 21.6548C4.09534 21.4338 3.97116 21.134 3.97116 20.8214ZM15.4112 2.69813C15.6987 1.38442 17.5687 1.37656 17.8673 2.68713L17.8814 2.74999L17.9097 2.87256C18.0784 3.59082 18.4545 4.24366 18.9912 4.74992C19.5279 5.25617 20.2016 5.59351 20.9284 5.71999C22.2987 5.95885 22.2987 7.92628 20.9284 8.16514C20.1974 8.29237 19.5203 8.63275 18.9821 9.14355C18.4439 9.65434 18.0687 10.3128 17.9034 11.0361L17.8673 11.1964C17.5687 12.5086 15.6972 12.5007 15.408 11.1854L15.3782 11.0487C15.2197 10.3229 14.8488 9.66076 14.3125 9.14664C13.7763 8.63251 13.0991 8.28973 12.3673 8.16199C10.9986 7.92471 10.9986 5.96042 12.3673 5.72156C13.0966 5.59475 13.7718 5.25439 14.3075 4.74359C14.8432 4.23279 15.2152 3.57453 15.3766 2.85213L15.4002 2.74999L15.4112 2.69813Z" fill="black"/>
</g>
<defs>
<clipPath id="clip0_75_265">
<rect width="22" height="22" fill="white"/>
</clipPath>
</defs>
</svg>
